<svg width="64" height="64" viewBox="0 0 64 64" fill="none" xmlns="http://www.w3.org/2000/svg" xmlns:xlink="http://www.w3.org/1999/xlink">
<path d="M44.978,30.489C40.007,30.489 35.042,30.453 30.077,30.513C28.685,30.531 27.926,30.387 27.95,28.63C28.051,21.649 28.01,14.662 27.974,7.681C27.968,6.434 28.129,5.72 29.647,5.51C39.66,4.119 49.668,2.667 59.664,1.096C61.522,0.802 62.03,1.09 62,3.057C61.874,11.435 61.856,19.82 61.94,28.198C61.958,30.075 61.396,30.573 59.58,30.531C54.717,30.411 49.841,30.489 44.978,30.489Z" fill="#FEFEFE"/>
<path d="M45.271,33.577C50.14,33.577 55.01,33.631 59.879,33.547C61.403,33.523 61.94,33.925 61.928,35.538C61.857,44.12 61.857,52.702 61.928,61.284C61.94,62.844 61.367,63.143 60.011,62.946C49.895,61.494 39.78,60.055 29.659,58.651C28.279,58.46 27.944,57.8 27.956,56.468C28.022,49.584 28.076,42.699 27.932,35.814C27.89,33.781 28.709,33.589 30.364,33.619C35.329,33.709 40.3,33.649 45.271,33.649C45.271,33.625 45.271,33.601 45.271,33.577Z" fill="#FEFEFE"/>
<path d="M12.595,30.554C9.016,30.554 5.437,30.5 1.858,30.584C0.418,30.62 -0.012,30.128 0.006,28.701C0.072,23.016 0.054,17.324 0.018,11.633C0.012,10.463 0.269,9.846 1.601,9.666C8.783,8.706 15.958,7.681 23.116,6.595C24.634,6.361 25.166,6.631 25.142,8.304C25.052,14.991 25.022,21.678 25.154,28.365C25.195,30.374 24.413,30.644 22.722,30.584C19.358,30.47 15.97,30.554 12.595,30.554Z" fill="#FEFEFE"/>
<path d="M12.714,33.649C16.192,33.649 19.669,33.721 23.146,33.619C24.712,33.571 25.16,34.051 25.13,35.635C25.016,42.316 24.987,49.002 25.052,55.683C25.07,57.363 24.76,57.908 22.937,57.621C15.881,56.505 8.807,55.528 1.727,54.568C0.508,54.4 0,54.016 0.012,52.727C0.066,46.939 0.09,41.152 0,35.371C-0.024,33.763 0.711,33.613 1.984,33.631C5.557,33.685 9.135,33.649 12.714,33.649Z" fill="#FEFEFE"/>
</svg>
