<svg width="64" height="28" viewBox="0 0 64 28" fill="none" xmlns="http://www.w3.org/2000/svg" xmlns:xlink="http://www.w3.org/1999/xlink">
<path d="M48,0C50.546,0 52.988,0.737 54.788,2.05C56.589,3.363 57.6,5.143 57.6,7L57.6,9.333L60.8,9.333C61.649,9.333 62.463,9.579 63.063,10.017C63.663,10.454 64,11.048 64,11.667L64,16.333C64,16.952 63.663,17.546 63.063,17.983C62.463,18.421 61.649,18.667 60.8,18.667L57.6,18.667L57.6,21C57.6,22.857 56.589,24.637 54.788,25.95C52.988,27.263 50.546,28 48,28L9.6,28C7.054,28 4.612,27.263 2.812,25.95C1.011,24.637 0,22.857 0,21L0,7C0,5.143 1.011,3.363 2.812,2.05C4.612,0.737 7.054,0 9.6,0L48,0ZM47.994,3.5L9.6,3.5C8.407,3.5 7.256,3.824 6.373,4.409C5.49,4.994 4.937,5.798 4.822,6.664L4.8,7L4.8,21C4.8,21.87 5.244,22.708 6.046,23.352C6.847,23.996 7.949,24.4 9.136,24.484L9.6,24.5L47.994,24.5C49.186,24.5 50.336,24.176 51.22,23.592C52.103,23.007 52.656,22.204 52.771,21.338L52.794,21L52.794,7C52.794,6.13 52.35,5.292 51.548,4.648C50.746,4.004 49.645,3.6 48.458,3.516L47.994,3.5L47.994,3.5ZM12.8,7L44.8,7C45.584,7 46.34,7.21 46.926,7.59C47.512,7.969 47.886,8.493 47.978,9.06L48,9.333L48,18.667C48,19.238 47.712,19.79 47.191,20.217C46.67,20.644 45.953,20.917 45.174,20.984L44.8,21L12.8,21C12.016,21 11.26,20.79 10.674,20.41C10.088,20.031 9.714,19.507 9.622,18.94L9.6,18.667L9.6,9.333C9.6,8.762 9.888,8.21 10.409,7.783C10.93,7.356 11.647,7.083 12.426,7.016L12.8,7L44.8,7L12.8,7Z" fill="#FFFFFF"/>
</svg>
