<svg width="286" height="200" viewBox="0 0 286 200" fill="none" xmlns="http://www.w3.org/2000/svg" xmlns:xlink="http://www.w3.org/1999/xlink">
<rect  x="69.361" y="29.544" width="29.929" height="19.602" fill="#FCFCFC"/>
<path d="M167.164,182.703C167.164,186.745 166.949,190.796 167.229,194.819C167.501,198.619 166.332,199.925 162.319,199.86C150.497,199.664 138.666,199.916 126.834,200C114.554,199.925 102.264,199.813 89.984,199.795C83.605,199.785 83.615,199.851 83.643,193.718C83.662,190.302 83.615,186.885 83.605,183.469C83.858,183.366 84.111,183.263 84.363,183.161C84.915,183.095 85.457,183.142 85.99,183.273C110.775,183.637 135.561,183.086 160.346,183.301C161.898,183.31 163.46,183.394 164.826,182.433C165.658,182.115 166.453,182.125 167.164,182.703Z" fill="#454345"/>
<path d="M83.615,183.469C79.041,181.266 74.056,183.282 69.389,182.069C71.035,179.857 73.486,180.725 75.628,180.435C77.629,180.155 79.902,181.257 81.576,179.296C82.193,178.176 82.324,176.954 82.408,175.721C82.867,169.141 82.025,168.226 75.338,168.226C68.538,168.226 61.748,168.16 54.948,168.272C53.573,168.291 52.152,168.571 50.955,167.591C49.842,167.6 48.691,167.89 47.681,167.162C47.915,166.331 48.532,165.771 49.065,165.145C50.562,161.393 49.496,157.482 49.851,153.655C50.066,151.312 50.646,149.015 53.358,148.997C63.085,148.913 72.84,147.839 82.53,149.566C83.503,153.505 80.5,153.813 78.031,154.047C73.074,154.513 68.08,154.177 63.104,154.233C61.701,154.252 60.308,154.205 58.905,154.308C57.025,154.448 55.538,155.018 55.519,157.286C55.5,159.405 56.772,160.348 58.661,160.665C62.187,161.262 65.713,161.804 69.324,161.766C72.588,161.729 75.861,161.552 79.116,161.953C84.728,162.653 87.805,165.565 88.834,171.017C89.76,175.927 90.405,176.589 95.577,176.636C115.331,176.823 135.074,176.701 154.828,176.655C156.072,176.655 157.325,176.608 158.513,176.188C160.458,175.488 160.888,173.901 160.823,172.072C160.757,170.13 159.56,169.393 157.783,169.253C156.848,169.178 155.922,169.187 154.987,169.131C149.132,168.814 146.204,166.219 145.241,160.506C144.24,154.569 144.24,154.569 138.264,154.205C131.651,153.813 128.425,150.985 127.199,144.47C126.479,140.642 125.965,136.806 126.937,132.923C127.929,131.019 129.276,129.805 131.614,130.533C132.231,131.131 132.53,131.877 132.671,132.708C133.447,137.786 131.717,143.041 133.784,148.017C137.375,149.473 141.126,148.511 144.792,148.735C149.553,149.025 150.338,149.79 150.6,154.541C150.741,157.127 150.011,159.797 151.274,162.28C151.666,162.634 152.069,162.961 152.536,163.223C156.081,164.156 159.682,163.512 163.236,163.671C166.697,163.82 168.361,165.425 168.352,168.879C168.343,170.746 168.389,172.604 168.38,174.471C168.361,182.601 167.931,183.058 159.532,183.077C141.014,183.114 122.495,183.021 103.976,183.124C97.317,183.161 90.63,182.601 83.98,183.488L83.615,183.469Z" fill="#EBBB44"/>
<path d="M49.486,166.62C48.878,166.797 48.27,166.975 47.671,167.152C44.108,167.087 40.545,166.975 36.972,166.965C35.391,166.965 33.82,167.133 32.969,165.378C32.819,154.942 32.922,144.506 32.913,134.071C32.95,133.445 33.287,133.062 33.904,132.922C47.251,132.904 60.607,132.792 73.953,132.932C80.566,132.997 83.493,137.804 80.575,143.582C78.639,147.409 75.113,148.091 71.409,147.391C66.92,146.541 62.44,146.747 57.96,146.784C50.449,146.849 48.812,148.67 48.728,156.249C48.691,159.218 49.43,162.083 49.514,165.024C49.664,165.565 49.654,166.097 49.486,166.62Z" fill="#454341"/>
<path d="M33.521,132.979C33.334,143.788 33.156,154.588 32.969,165.388C31.688,157.818 33.034,150.173 32.286,142.593C32.342,140.605 32.202,138.58 32.501,136.629C32.96,133.67 31.781,132.083 28.947,131.523C33.25,129.03 31.996,124.895 31.996,121.143C31.884,118.837 30.565,117.885 28.377,117.773C25.898,117.652 23.41,117.848 20.923,117.652C19.576,117.446 18.416,116.961 17.724,115.701C17.078,114.161 17.097,112.63 17.873,111.146C19.304,109.736 20.24,110.837 21.4,111.696C24.355,113.871 27.432,113.423 29.303,110.557C30.855,108.168 30.528,105.442 29.845,102.95C29.162,100.411 26.646,101.139 24.729,100.878C23.046,100.644 20.904,101.41 20.156,98.945C23.495,96.294 27.189,97.256 30.79,98.021C32.23,98.329 33.016,99.608 33.399,101.046C33.633,101.951 33.708,102.885 33.708,103.809C33.708,115.663 32.885,115.066 46.839,115.075C55.032,115.085 63.179,113.899 71.344,114.329C75.347,114.543 79.312,115.589 83.287,114.226C89.124,113.04 94.932,112.126 100.469,115.374C100.244,118.548 97.691,117.39 95.989,117.708C92.622,118.333 88.946,116.55 85.813,119.005C84.354,122.543 86.037,126.482 84.41,129.992C82.895,132.876 80.145,132.671 77.526,132.68C63.927,132.718 50.319,132.671 36.72,132.708C35.644,132.717 34.54,132.437 33.521,132.979Z" fill="#EBE66F"/>
<path d="M82.922,180.772C78.592,183.142 73.822,180.949 69.38,182.069C64.423,182.06 59.456,181.873 54.508,182.116C51.572,182.265 50.599,181.229 50.823,178.447C51.039,175.834 51.029,173.211 51.123,170.588C59.568,166.63 68.472,168.534 77.208,168.702C80.238,168.758 80.827,171.708 81.192,174.209C81.519,176.468 81.108,178.905 82.922,180.772Z" fill="#444245"/>
<path d="M82.923,180.771C80.697,181.107 79.35,180.817 79.995,177.924C80.351,176.337 80.005,174.545 79.734,172.883C79.369,170.652 78.181,169.523 75.609,169.597C69.567,169.784 63.497,169.999 57.492,169.504C55.07,169.299 53.639,173.051 51.114,170.587C51.058,169.588 51.001,168.589 50.945,167.591C61.018,166.218 71.138,167.245 81.239,167.003C82.624,166.965 83.718,167.647 83.596,169.252C83.297,173.079 84.373,177 82.923,180.771Z" fill="#4D3918"/>
<path d="M253.949,98.768C254.604,100.093 255.249,98.609 255.895,98.758C259.636,97.788 263.433,98.385 267.202,98.376C268.063,98.376 268.521,99.02 268.746,99.813C268.764,100.355 268.792,100.887 268.811,101.428C268.082,104.574 268.661,107.766 268.474,110.93C268.287,112.247 268.951,113.703 267.829,114.87C253.22,114.907 238.611,115.243 224.011,114.972C213.928,114.786 203.837,114.982 193.764,114.3C189.415,114.001 185.112,115.392 180.726,115.038C177.48,114.776 174.169,114.823 171.335,112.797C170.484,111.593 170.372,110.202 170.288,108.802C169.876,102.044 171.784,100.074 178.537,100.261C195.924,100.737 213.302,99.897 230.689,100.205C232.251,100.233 233.813,100.196 235.206,99.337C236.712,98.301 237.367,97.087 237.217,95.043C236.291,82.628 236.965,70.176 236.806,57.743C236.759,54.102 238.283,52.245 242.174,52.515C244.914,52.702 247.674,52.571 250.143,52.543C245.635,52.021 240.809,53.449 236.067,51.89C238.526,49.5 241.566,50.826 244.307,50.761C253.51,50.574 253.51,50.686 253.51,59.871C253.51,71.324 253.491,82.768 253.528,94.222C253.547,95.734 253.182,97.311 253.949,98.768Z" fill="#454346"/>
<path d="M101.619,15.747C101.572,11.715 101.638,7.673 101.451,3.65C101.329,1.027 102.33,-0.019 104.949,0.056C108.83,0.168 112.721,0.093 116.602,0.093C142.716,0.093 168.838,0.177 194.951,0.009C199.216,-0.019 200.862,1.111 200.423,5.507C200.096,8.868 200.544,12.312 200.657,15.71C200.423,15.869 200.189,16.027 199.955,16.195C191.304,17.763 182.568,16.849 173.87,17.11C169.025,17.25 168.642,17.633 168.474,22.524C168.146,31.858 167.875,32.129 158.55,32.017C156.39,31.989 154.164,32.223 152.209,30.953C150.067,28.601 151.04,25.688 150.778,23C150.6,21.096 151.423,18.884 149.169,17.595C142.66,16.625 136.131,17.362 129.622,17.157C120.783,16.877 111.926,17.689 103.087,16.709C102.526,16.513 102.031,16.186 101.619,15.747Z" fill="#444347"/>
<path d="M18.566,65.136C17.686,60.226 18.397,55.279 18.135,50.35C17.995,47.643 19.884,47.998 21.587,47.998C29.957,48.007 38.338,47.858 46.699,48.073C49.963,48.157 51.17,47.195 50.889,43.9C50.618,40.67 50.945,37.394 50.74,34.155C50.571,31.448 51.282,30.15 54.303,30.412C57.38,30.673 60.513,30.664 63.6,30.431C67.303,30.16 68.809,31.56 68.033,35.228C67.154,39.326 66.855,43.405 68.201,47.475C68.557,47.485 68.912,47.494 69.268,47.494C71.391,48.409 73.71,47.401 75.861,48.157C78.33,48.521 79.369,49.921 78.91,52.367C78.686,53.589 78.686,54.831 78.667,56.063C78.527,65.902 78.003,66.415 67.958,66.424C53.545,66.434 39.133,66.452 24.71,66.396C22.625,66.415 20.333,66.91 18.566,65.136Z" fill="#434345"/>
<path d="M250.414,181.377C249.703,181.592 248.983,181.984 248.272,181.984C222.991,181.975 197.71,181.928 172.43,181.881C170.821,181.797 168.492,183.776 168.071,180.341C169.184,177.606 170.232,174.871 170.297,171.856C170.372,168.001 172.439,166.349 176.236,166.377C182.297,166.433 188.358,166.386 194.409,166.386C210.879,166.386 227.34,166.368 243.811,166.396C245.953,166.396 248.188,166.022 250.133,167.404C251.237,172.043 250.751,176.71 250.414,181.377Z" fill="#454247"/>
<path d="M17.677,115.505C18.584,116.55 19.95,116.308 21.091,116.7C21.184,117.904 20.343,117.969 19.482,118.025C19.071,117.923 18.725,117.717 18.416,117.428C13.796,115.402 8.932,116.55 4.19,116.522C0.898,116.504 -0.037,115.477 0,112.229C0.168,98.292 0.178,84.346 0,70.41C-0.037,66.966 0.926,65.687 4.471,65.92C9.11,66.228 13.777,66.07 18.435,66.116C18.631,66.331 18.818,66.555 19.014,66.77C20.661,72.342 19.557,78.055 19.791,83.693C19.94,87.212 19.94,90.75 19.735,94.278C19.697,95.819 19.772,97.387 19.173,98.862C15.376,99.188 15.086,102.157 15.021,104.882C14.937,108.597 13.646,112.751 17.677,115.505Z" fill="#434445"/>
<path d="M168.137,180.762C169.231,182.414 171.074,181.219 172.43,181.891C170.671,182.162 168.922,182.442 167.164,182.713C166.5,182.731 165.836,182.75 165.162,182.769C163.703,184.085 161.917,183.627 160.243,183.627C145.297,183.655 130.351,183.525 115.405,183.683C105.154,183.795 94.904,183.599 84.662,183.497L84.316,183.525L83.97,183.497C84.485,180.51 86.87,181.751 88.413,181.751C112.796,181.667 137.179,181.602 161.562,181.779C165.686,181.807 167.155,180.892 167.052,176.468C166.79,164.912 167.024,164.931 155.258,164.893C153.621,164.884 151.825,165.547 150.366,164.184C153.322,161.682 156.885,163.073 160.168,162.681C162.057,162.457 164.611,163.306 165.293,160.711C165.995,158.051 166.397,155.036 164.901,152.6C163.731,150.705 161.216,151.48 159.27,151.452C151.863,151.368 151.872,151.396 151.563,158.779C151.489,160.609 151.685,162.532 150.067,163.922C148.411,162.046 149.3,159.778 149.235,157.706C148.982,149.258 150.834,150.07 141.2,149.883C138.329,149.827 135.346,150.695 132.558,149.286C135.635,146.635 139.339,147.923 142.725,147.923C146.466,147.923 148.318,146.71 147.878,142.901C147.542,139.942 148.907,136.778 146.85,134.034C142.416,132.913 137.824,134.323 133.4,133.175C132.876,132.951 132.484,132.596 132.194,132.101C132.802,130.197 134.466,130.272 135.982,130.15C137.674,130.02 139.377,130.094 141.069,130.085C147.878,130.066 147.804,130.066 148.019,123.215C148.084,121.087 147.13,118.436 150.067,117.213C152.873,120.704 150.955,124.858 151.694,128.638C152.892,131.364 156.109,129.394 157.708,131.187C157.989,131.644 157.989,132.101 157.727,132.559C157.156,133.063 156.474,133.324 155.735,133.464C152.62,133.324 151.479,134.706 151.414,137.898C151.245,147.092 151.881,147.802 161.375,147.046C163.385,146.887 165.396,146.859 167.417,147.13C167.968,147.223 168.492,147.354 169.025,147.503C174.31,148.138 179.603,147.764 184.878,147.774C204.482,147.83 224.076,147.783 243.68,147.811C245.85,147.811 248.038,147.587 250.171,148.269C254.314,152.45 252.827,157.211 251.555,161.944C251.05,162.429 250.517,162.448 249.965,162.018C248.628,160.263 248.758,158.182 248.889,156.203C249.142,152.478 247.346,151.33 243.867,151.349C231.428,151.414 218.979,151.377 206.54,151.377C195.653,151.377 184.766,151.517 173.879,151.302C170.007,151.228 169.137,152.777 169.24,156.231C169.409,161.906 169.727,162.662 174.085,162.681C196.944,162.774 219.811,162.746 242.67,162.662C244.84,162.653 247.028,162.42 249.133,163.213C249.871,163.708 250.797,164.109 250.049,165.267C247.992,166.816 245.588,166.359 243.306,166.368C220.644,166.396 197.991,166.377 175.329,166.396C169.886,166.396 169.596,166.695 169.484,172.165C169.437,175.086 169.577,178.045 168.137,180.762Z" fill="#A85C49"/>
<path d="M253.949,98.768C252.331,97.433 253.033,95.594 253.033,93.979C252.986,81.107 252.911,68.235 253.107,55.362C253.163,51.834 252.097,50.471 248.59,51.087C244.587,51.797 240.341,49.724 236.469,52.133C237.619,53.654 237.123,55.428 237.151,57.089C237.31,69.952 236.899,82.815 237.395,95.678C237.441,96.817 237.198,97.825 236.609,98.768C234.757,100.336 232.503,100.009 230.361,100.018C218.371,100.056 206.38,100.028 194.39,100.046C192.688,100.046 190.957,99.897 189.293,100.438C182.418,101.4 175.6,100.401 168.754,99.888C167.921,99.673 167.164,99.309 166.603,98.627C165.088,92.7 165.546,86.661 165.527,80.64C168.529,79.847 168.96,81.975 169.25,84.038C169.624,86.661 169.465,89.321 169.446,91.953C169.427,94.791 170.512,96.285 173.543,96.294C192.229,96.313 210.926,96.331 229.613,96.285C232.55,96.275 233.812,94.912 233.812,92.019C233.812,80.36 233.831,68.701 233.803,57.042C233.794,53.906 232.381,52.721 229.276,52.553C220.26,52.086 219.942,52.282 219.923,61.075C219.914,66.666 220.026,72.267 219.858,77.858C219.802,79.772 220.167,82.031 217.679,82.992C215.967,81.256 216.126,79.016 216.107,76.86C216.042,70.176 216.07,63.502 216.089,56.818C216.098,53.775 215.088,52.329 211.74,52.385C200.292,52.562 202.162,51.535 202.031,61.598C201.956,67.497 201.985,73.406 202.041,79.296C202.05,80.677 202.667,81.489 204.145,81.508C208.616,82.199 213.395,80.089 217.604,82.992C216.996,85.214 215.05,85.018 213.442,85.121C210.187,85.335 206.913,85.27 203.659,85.531C200.348,85.802 198.655,83.935 198.515,80.864C198.112,71.716 198.169,62.559 198.487,53.402C198.589,50.396 200.404,49.015 203.313,48.828C206.268,48.632 209.224,48.772 212.179,48.669C214.602,48.576 215.948,47.484 215.986,44.982C215.995,44.674 216.014,44.366 216.042,44.049C216.64,35.191 216.407,35.023 207.503,34.78C205.062,34.714 202.078,35.704 200.535,32.568C203.481,30.001 207.054,31.205 210.355,31.055C215.808,30.803 215.939,30.701 216.126,25.156C216.238,21.973 215.303,18.603 217.473,15.7C219.643,19.779 218.202,24.148 218.296,28.348C218.38,31.671 219.418,32.456 222.608,32.512C226.826,32.586 231.203,31.242 235.29,33.38C232.241,35.657 228.696,34.593 225.367,34.752C220.354,34.985 219.989,35.237 219.867,39.988C219.624,49.024 219.624,49.024 228.678,48.782C233.438,48.651 233.691,48.287 233.925,43.293C234.084,39.96 233.017,36.432 235.299,33.389C236.684,36.796 236.852,40.306 236.328,43.909C235.524,49.5 235.973,49.995 241.613,49.995C253.93,49.995 253.93,49.995 253.93,62.428C253.949,74.554 253.949,86.661 253.949,98.768Z" fill="#A9A8AA"/>
<path d="M250.273,162.149C250.554,162.167 250.834,162.177 251.115,162.195C254.996,162.578 258.878,162.783 262.778,162.606C264.611,162.522 266.407,162.139 266.416,159.89C266.454,151.078 267.436,142.248 265.846,133.492C263.994,132.278 261.908,132.736 259.935,132.736C231.998,132.698 204.051,132.726 176.114,132.698C173.823,132.698 171.438,133.109 169.277,131.858C168.744,131.429 168.632,130.915 168.922,130.299C170.952,128.675 173.346,129.142 175.656,129.133C204.164,129.077 232.671,129.235 261.179,129.067C266.126,129.039 266.8,128.19 266.66,123.336C266.566,120.06 265.21,118.426 261.805,118.715C260.412,118.827 259,118.706 257.606,118.865C234.523,118.949 211.44,118.949 188.357,118.893C183.55,118.51 178.715,118.902 173.907,118.669C170.549,118.501 168.931,119.602 169.259,123.159C169.408,124.829 169.446,126.584 168.585,128.162C168.305,128.647 167.875,128.881 167.304,128.853C164.433,126.071 166.743,122.225 165.312,119.154C164.807,118.463 164.218,117.81 164.002,116.942C164.189,115.682 165.77,115.318 165.892,114.011C165.985,113.591 166.116,113.18 166.256,112.779C166.556,112.135 166.892,111.528 167.772,111.668C168.744,112.181 169.109,113.171 169.698,113.992C171.962,115.504 174.543,115.019 176.966,115.019C206.689,115.019 236.412,115.122 266.136,115.066C266.762,115.066 267.37,114.954 267.941,114.683C268.081,113.441 268.231,112.209 268.371,110.968C268.549,111.005 268.727,111.042 268.895,111.089C269.419,112.928 267.632,115.56 270.747,116.522C270.924,119.611 270.083,122.636 270.307,125.754C270.588,129.543 273.281,129.161 275.741,129.114C278.257,129.067 281.278,129.889 281.652,125.763C281.923,122.776 280.698,119.499 283.139,116.867C284.767,121.04 283.551,125.352 283.757,129.59C283.813,130.803 283.027,131.588 281.671,131.541C281.054,131.522 280.427,131.522 279.81,131.532C268.942,131.737 268.942,131.737 268.923,142.397C268.914,148.436 268.689,154.494 268.988,160.524C269.166,164.146 267.866,165.117 264.48,164.837C261.244,164.566 257.952,164.93 254.707,164.762C251.779,164.604 251.05,165.92 250.984,168.617C250.881,172.883 251.882,177.205 250.414,181.406C250.311,176.822 250.198,172.248 250.096,167.675C249.394,166.769 249.562,165.892 250.17,165.033C249.862,164.66 249.544,164.286 249.235,163.913C248.786,162.839 248.842,162.083 250.273,162.149Z" fill="#B76257"/>
<path d="M18.565,65.136C35.662,65.136 52.769,65.136 69.866,65.127C77.273,65.127 77.264,65.117 77.292,57.547C77.301,55.997 76.946,54.233 77.563,52.954C78.854,50.275 77.18,49.417 75.431,48.381C77.975,47.54 80.612,47.811 83.222,47.718C83.699,47.895 83.998,48.25 84.11,48.745C80.135,52.264 79.92,61.169 83.764,63.549C84.185,63.726 84.587,63.932 84.98,64.146C87.767,65.631 91.069,63.969 93.818,65.603C94.885,67.497 93.313,67.6 92.2,67.824C90.414,68.188 88.525,67.553 86.804,68.263C90.713,68.123 95.212,66.415 98.102,70.186C99.786,72.389 100.309,75.646 98.598,78.634C99.514,79.016 101.095,76.664 102.143,78.886C102.404,80.491 101.647,81.434 100.206,81.966C96.044,82.853 91.845,82.414 87.655,82.367C84.241,82.33 82.539,80.528 82.436,77.149C82.417,76.533 82.399,77.308 82.417,76.683C82.604,67.395 82.735,67.525 72.587,67.535C56.875,67.535 41.171,67.553 25.458,67.516C22.999,67.507 20.427,67.824 18.341,65.995L18.434,66.088C18.481,65.789 18.519,65.463 18.565,65.136Z" fill="#48453E"/>
<path d="M217.492,15.72C217.482,20.172 217.342,24.625 217.51,29.068C217.613,31.719 216.613,32.578 214.05,32.512C209.598,32.391 205.137,32.522 200.685,32.54C198.459,26.893 198.365,21.264 200.778,15.645L200.666,15.71C206.268,15.16 211.88,15.15 217.492,15.72Z" fill="#404042"/>
<path d="M83.68,48.437C80.94,47.709 78.19,47.989 75.44,48.381C73.467,47.522 71.175,48.941 69.286,47.503C76.768,48.484 83.792,45.441 91.144,45.039C95.184,44.815 98.009,42.827 98.028,37.973C98.037,35.574 99.038,33.156 98.757,30.645C100.534,28.405 100.244,25.763 100.338,23.159C100.431,20.611 99.655,17.867 101.638,15.636L101.619,15.738C101.909,15.524 102.18,15.533 102.442,15.785C104.313,17.67 103.845,20.088 103.911,22.366C103.967,24.009 104.004,25.717 106.249,25.502C118.566,24.326 130.557,27.313 142.706,28.181C149.543,28.666 149.562,28.265 149.768,21.432C149.824,19.444 149.599,17.362 151.264,15.785C153.153,20.639 151.657,25.67 152.04,30.599C151.835,30.795 151.629,30.981 151.423,31.177C145.924,32.802 140.293,31.635 134.728,31.915C134.176,31.934 133.615,31.934 133.063,31.943C125.628,32.046 118.192,31.924 110.757,31.98C103.901,32.027 103.256,32.634 102.975,39.27C102.592,48.232 91.63,53.431 83.68,48.437Z" fill="#FDFCC0"/>
<path d="M283.14,116.84C283.112,118.697 283.252,120.564 283.027,122.394C282.7,125.035 284.617,129.077 281.905,130.039C278.473,131.252 274.283,130.403 270.42,130.328C269.971,130.319 269.138,129.6 269.167,129.264C269.531,124.989 267.174,120.359 270.747,116.494C274.881,116.466 279.034,115.822 283.14,116.84Z" fill="#464344"/>
<path d="M18.416,117.418C18.725,117.446 19.043,117.465 19.351,117.493C20.258,119.22 21.643,118.407 22.99,118.277C28.732,117.698 31.201,119.873 31.566,125.707C31.566,126.332 32.249,125.66 31.65,125.828C31.538,125.856 31.482,125.716 31.51,125.399C31.632,124.083 31.042,122.543 32.66,121.684C32.801,123.355 32.791,125.063 33.128,126.706C33.839,130.216 32.099,131.438 28.947,131.541C28.031,131.485 27.114,131.382 26.188,131.364C18.107,131.186 18.098,131.196 18.182,122.944C18.201,121.096 18.332,119.257 18.416,117.418Z" fill="#43423C"/>
<path d="M101.638,15.635C101.61,19.612 101.441,23.598 101.628,27.565C101.731,29.852 100.712,30.552 98.757,30.654C90.059,30.589 81.351,30.356 72.653,30.524C69.333,30.589 68.482,29.534 68.425,26.342C68.248,15.365 68.126,15.337 79.275,15.374C86.729,15.402 94.183,15.542 101.638,15.635Z" fill="#444347"/>
<path d="M268.745,99.813C264.574,98.086 260.122,99.729 255.895,98.759C259.748,96.966 263.788,98.217 267.745,98.068C268.605,98.04 268.895,98.955 268.745,99.813Z" fill="#A9A8AA"/>
<path d="M68.22,47.484C66.172,43.433 66.471,39.344 68.052,35.237C68.108,39.326 68.164,43.405 68.22,47.484Z" fill="#444347"/>
<path d="M268.895,111.07C268.727,110.996 268.549,110.958 268.371,110.949C268.39,107.775 267.651,104.555 268.83,101.428C269.316,104.639 269.176,107.85 268.895,111.07Z" fill="#A9A8AA"/>
<path d="M84.671,183.497C85.476,182.507 86.598,182.647 87.683,182.656C113.516,182.694 139.348,182.731 165.172,182.768C165.069,183.945 165.462,185.233 163.32,185.083C147.813,184.047 132.278,184.393 116.78,184.803C106.754,185.065 96.727,183.655 86.729,184.999C85.579,185.149 85.074,184.374 84.671,183.497Z" fill="#443107"/>
<path d="M131.53,130.468C130.276,131.075 129.014,131.691 127.76,132.297C120.549,133.38 113.31,132.615 106.08,132.671C105.285,132.587 104.537,132.381 103.854,131.961C102.143,127.976 103.911,124.186 105.052,120.592C105.875,117.978 108.952,118.072 111.468,118.333C113.572,118.548 115.751,119.248 117.379,117.138C117.706,116.802 118.052,116.485 118.398,116.167C118.567,115.999 118.735,115.841 118.903,115.673C119.399,115.15 119.876,114.627 120.344,114.077C121.513,103.715 120.746,93.335 120.736,82.965C120.736,82.162 120.147,81.555 119.474,81.107C119.034,80.818 118.632,80.501 118.239,80.155C116.546,78.139 114.386,78.624 112.207,78.942C106.286,79.8 104.36,78.279 104.013,72.566C103.555,64.987 102.452,63.923 94.764,63.671C89.142,63.484 87.094,62.121 86.439,58.135C85.56,52.712 87.487,50.266 93.024,49.828C101.413,49.156 101.937,48.661 103.228,40.344C104.051,35.042 106.96,32.316 112.253,32.101C116.294,31.943 120.353,31.961 124.393,32.092C129.622,32.251 132.007,34.379 132.624,39.672C133.073,43.527 133.344,47.522 132.596,51.293C130.791,60.422 133.054,69.467 132.615,78.531C133.166,79.278 133.718,80.024 134.42,80.631C134.784,80.874 135.14,81.145 135.505,81.397C137.637,82.405 139.9,82.928 142.248,83.049C147.757,83.338 149.178,84.794 149.263,90.498C149.3,92.981 149.001,95.529 151.479,97.191C152.171,97.807 152.761,98.507 153.312,99.244C154.463,101.13 156.287,101.251 158.185,101.055C161.393,100.719 164.255,101.195 164.816,104.975C165.593,110.231 163.769,113.227 159.588,114.394C157.166,115.066 154.678,114.674 152.237,114.889C151.414,114.963 150.853,115.505 150.31,116.055C149.786,116.522 149.207,116.933 148.673,117.4C147.486,118.856 147.729,120.62 147.729,122.272C147.747,126.053 145.662,127.92 142.211,128.508C138.881,129.077 135.495,129.357 132.222,130.281C131.988,130.337 131.754,130.403 131.53,130.468Z" fill="#FCF026"/>
<path d="M105.341,131.429C112.814,131.812 120.353,130.393 127.76,132.297C127.882,136.46 127.741,140.605 128.593,144.777C129.677,150.07 132.446,152.805 137.964,152.851C145.811,152.917 145.811,152.917 146.475,160.534C146.877,165.089 149.749,167.731 154.369,167.777C155.304,167.787 156.24,167.805 157.166,167.768C160.074,167.656 162.749,167.357 162.487,171.866C162.263,175.693 161.543,178.101 157.035,178.083C135.925,177.989 114.816,178.036 93.697,178.045C89.638,178.045 87.374,176.645 87.477,172.006C87.599,166.358 84.035,163.297 77.816,163.138C71.465,162.979 65.133,163.129 58.773,162.317C54.967,161.831 53.882,160.394 53.798,156.725C53.704,152.534 56.145,152.823 58.885,152.842C65.105,152.889 71.334,152.795 77.554,152.87C79.939,152.898 81.875,152.413 82.81,149.967C82.754,149.08 83.353,148.726 84.035,148.427C85.962,147.83 86.056,146.289 85.925,144.674C85.812,143.284 85.485,141.921 85.429,140.521C85.223,135.471 86.196,134.285 91.116,133.202C95.82,132.176 100.637,132.269 105.341,131.429Z" fill="#FBBB15"/>
<path d="M83.848,149.081C83.502,149.37 83.166,149.669 82.82,149.958C73.542,149.93 64.254,149.996 54.976,149.837C51.955,149.781 50.814,150.78 51.02,153.841C51.254,157.22 51.095,160.628 51.067,164.025C51.057,165.183 51.497,166.686 49.467,166.62C49.318,166.387 49.252,166.126 49.261,165.846C49.187,161.832 48.569,157.837 48.784,153.804C49.056,148.539 50.15,147.186 55.434,146.906C60.073,146.654 64.75,146.551 69.389,147.037C70.315,147.13 71.241,147.233 72.167,147.251C82.754,147.466 81.566,145.3 81.435,135.975C81.417,134.472 80.35,133.922 79.032,133.595C77.339,133.184 75.637,133.259 73.934,133.25C60.728,133.156 47.531,133.418 34.325,133.11L33.904,133.119L33.511,132.979C34.072,130.076 36.439,131.252 37.982,131.243C51.628,131.14 65.264,131.187 78.91,131.205C80.743,131.205 82.707,131.607 83.699,129.404C87.683,128.778 91.705,129.18 95.698,129.17C100.319,129.161 99.159,125.875 99.346,123.308C99.552,120.601 99.299,118.623 95.586,118.585C91.686,118.548 87.552,119.827 83.876,117.381C85.981,114.945 88.749,116.634 91.181,116.242C94.296,115.748 97.56,116.97 100.618,115.523C100.571,115.271 100.525,115.029 100.478,114.777C100.094,109.736 100.496,104.686 100.244,99.636C100.16,98.609 99.776,97.611 99.898,96.556C100.122,95.38 100.627,94.53 102.03,94.689C103.751,95.66 103.733,97.359 103.835,99.001C103.826,102.885 103.882,106.768 103.826,110.651C103.798,113.237 104.902,114.105 107.455,114.254C117.042,114.814 117.032,114.889 117.032,105.442C117.032,99.384 116.92,93.326 117.079,87.268C117.163,84.178 115.919,83.161 112.964,83.208C109.868,83.254 106.735,83.581 103.658,82.862C103.115,82.647 102.676,82.302 102.339,81.826C102.535,80.501 103.546,79.996 104.63,79.95C109.363,79.772 114.133,79.063 118.809,80.454C119.38,80.697 119.81,81.098 120.1,81.639C121.26,92.206 120.521,102.801 120.512,113.377C120.512,114.478 119.922,115.43 119.249,116.289L119.193,116.345C115.816,118.707 111.972,117.568 108.325,117.717C103.218,117.922 102.975,118.044 102.891,122.907C102.732,132.531 102.732,132.531 93.239,132.764C92.93,132.774 92.621,132.764 92.303,132.764C85.205,132.895 85.289,132.895 85.158,140.129C85.12,143.144 86.084,146.374 83.848,149.081Z" fill="#876E20"/>
<path d="M132.549,132.027C132.811,132.092 133.082,132.167 133.334,132.251C134.775,135.368 133.456,138.579 133.643,141.744C133.942,146.831 133.774,146.924 138.825,146.868C140.33,146.85 142.313,147.951 143.295,145.702C145.596,142.659 144.923,138.906 145.793,135.518C146.344,134.258 147.429,133.436 148.29,132.428C150.319,137.282 148.87,142.351 149.141,147.307C149.253,149.286 147.345,149.025 145.998,149.053C141.528,149.146 137.048,149.202 132.577,149.277C130.547,143.741 132.175,137.982 131.576,132.363C131.782,131.924 132.109,131.812 132.549,132.027Z" fill="#6C4519"/>
<path d="M132.549,132.027C132.221,132.139 131.885,132.251 131.557,132.372C131.548,131.737 131.529,131.103 131.52,130.477L131.529,130.402C135.009,128.862 138.722,129.012 142.379,129.105C145.97,129.189 147.308,127.462 147.429,124.12C147.523,121.563 146.737,118.865 148.411,116.503C148.711,116.195 149.01,115.878 149.319,115.57C155.099,114.086 160.963,114.105 166.855,114.497C167.145,116.625 165.424,116.307 164.236,116.643C159.616,118.828 154.799,117.829 150.02,117.521C148.636,120.779 149.431,124.204 149.449,127.537C149.459,130.617 148.336,131.439 145.372,131.495C141.107,131.532 136.758,130.552 132.549,132.027Z" fill="#C5BA59"/>
<path d="M34.334,133.118C35.279,131.97 36.589,132.269 37.804,132.269C51.347,132.26 64.89,132.372 78.424,132.213C81.819,132.176 82.997,133.044 82.988,136.628C82.941,148.222 83.091,148.222 71.671,148.24C66.228,148.25 60.766,148.474 55.332,148.156C51.095,147.914 50.029,149.603 50.019,153.57C50.01,157.65 51.235,161.878 49.28,165.855C48.513,165.742 47.41,165.602 47.784,164.622C48.457,162.839 47.681,161.299 47.457,159.647C45.979,148.754 48.859,145.421 59.746,145.412C63.777,145.412 67.762,145.468 71.793,146.168C77.498,147.158 79.808,144.917 80.173,139.793C80.5,135.321 78.471,134.108 74.421,134.155C61.663,134.323 48.897,134.267 36.14,134.407C34.942,134.407 34.381,134.341 34.334,133.118Z" fill="#4A3A0F"/>
<path d="M58.502,128.535C53.059,128.535 47.606,128.731 42.181,128.461C39.057,128.302 35.625,128.218 36.008,123.131C36.28,119.556 37.327,118.118 40.975,118.268C52.413,118.725 63.843,117.502 75.3,118.249C78.433,118.454 80.968,118.893 80.986,122.701C81.014,126.463 79.06,128.489 75.3,128.535C69.707,128.61 64.104,128.554 58.502,128.554C58.502,128.554 58.502,128.545 58.502,128.535Z" fill="#F9EF2F"/>
<path d="M100.534,96.873C100.796,97.517 101.048,98.161 101.31,98.805C101.002,99.188 100.637,99.505 100.216,99.757C97.27,100.504 94.557,98.787 91.602,98.992C85.953,99.384 84.447,100.962 84.064,106.572C83.858,109.54 85.682,112.592 83.671,115.458C82.193,116.606 80.453,116.588 78.77,116.373C65.386,114.683 52.002,116.69 38.618,116.429C33.231,116.317 32.538,115.719 32.51,110.203C32.51,109.269 32.51,108.345 32.51,107.412C32.492,98.245 29.415,96.294 20.174,99.617C20.062,100.308 19.678,100.747 18.967,100.85C18.294,100.635 17.92,100.215 18.051,99.468C18.163,97.965 18.275,96.472 18.388,94.969C24.663,90.983 31.425,92.43 35.176,98.544C35.569,99.739 35.625,100.99 35.634,102.222C35.709,111.472 37.29,111.846 47.251,112.368C56.22,112.844 65.264,112.228 74.271,112.536C77.853,112.658 79.546,111.015 79.668,107.701C79.827,103.426 79.705,98.768 84.447,97.004C89.638,95.09 95.156,93.531 100.534,96.873Z" fill="#FEFDC8"/>
<path d="M83.662,115.458C83.25,112.088 82.745,108.737 82.885,105.311C83.119,99.832 84.625,98.404 90.19,97.788C93.819,97.386 97.13,98.982 100.665,98.814C100.88,104.368 100.702,109.932 100.674,115.486L100.637,115.532C94.979,114.907 89.329,113.535 83.662,115.458Z" fill="#EDEA76"/>
<path d="M83.886,117.381C88.394,117.362 92.902,117.4 97.401,117.297C99.711,117.241 100.758,117.95 100.712,120.48C100.487,131.812 101.918,130.468 91.284,130.384C88.768,130.365 85.99,131.476 83.699,129.404C83.774,125.399 83.83,121.395 83.886,117.381Z" fill="#53480E"/>
<path d="M18.051,99.467C18.416,99.888 18.79,100.298 19.155,100.718C19.856,104.181 20.427,107.626 18.369,110.874C17.892,112.377 18.734,114.085 17.677,115.504C15.18,115.812 14.132,114.813 13.889,112.209C13.506,108.018 13.739,103.939 14.693,99.85C15.507,96.368 16.788,98.347 18.051,99.467Z" fill="#4E4B17"/>
<path d="M18.369,110.875C18.388,107.468 17.331,103.986 19.155,100.719C19.492,100.355 19.828,99.991 20.174,99.627C21.568,99.636 22.962,99.655 24.364,99.664C27.432,99.692 30.837,99.076 31.473,103.575C32.258,109.139 30.481,112.705 26.516,114.282C22.503,115.878 20.885,112.452 18.369,110.875Z" fill="#F0EC61"/>
<path d="M32.66,121.674C32.539,123.831 32.445,125.987 32.295,128.143C32.249,128.824 31.762,129.3 31.08,129.291C30.051,129.272 30.051,128.6 30.041,127.714C29.967,119.275 29.153,118.622 20.866,120.041C19.706,120.237 19.706,120.237 19.351,117.492C19.931,117.222 20.511,116.96 21.091,116.69C23.522,116.587 25.964,116.624 28.377,116.354C32.735,115.868 33.97,117.707 32.66,121.674Z" fill="#47420F"/>
<path d="M267.932,114.664C267.623,117.128 265.678,116.344 264.303,116.344C233.373,116.382 202.443,116.363 171.504,116.382C169.521,116.382 167.594,116.578 167.903,113.665C169.334,113.908 170.026,111.36 171.737,112.648C181.165,115.252 190.743,112.816 200.273,113.339C218.595,114.337 237.011,113.759 255.38,113.535C259.664,113.488 263.948,111.938 267.932,114.664Z" fill="#6E382F"/>
<path d="M171.747,112.658C170.325,112.471 169.605,114.879 167.912,113.675C167.716,113.031 167.529,112.396 167.332,111.752C164.517,108.737 166.201,105.087 165.883,101.718C165.948,101.186 166.098,100.682 166.322,100.205C166.883,99.057 168.109,99.337 169.025,98.945C175.432,99.151 181.839,99.347 188.245,99.552C199.207,98.787 210.178,99.384 221.149,99.225C225.947,99.16 230.745,99.151 235.533,99.253C236.244,99.431 236.497,99.869 236.263,100.57C234.598,101.624 232.728,101.54 230.866,101.54C219.549,101.531 208.232,101.522 196.915,101.54C190.331,101.55 183.775,103.015 177.143,101.587C172.832,100.663 171.204,102.884 171.691,107.094C171.906,108.924 171.737,110.8 171.747,112.658Z" fill="#3E3E3B"/>
<path d="M236.272,100.569C236.272,100.271 236.272,99.972 236.272,99.673C235.72,99.365 235.683,99.01 236.16,98.59C236.263,83.105 236.375,67.619 236.478,52.133C241.379,52.133 246.289,52.133 251.19,52.133C251.19,52.422 251.199,52.712 251.199,53.001C248.281,53.001 245.354,53.104 242.436,52.973C239.564,52.842 238.03,53.776 238.133,56.912C238.535,69.775 237.366,82.656 238.769,95.501C239.003,97.732 238.171,99.412 236.272,100.569Z" fill="#232426"/>
<path d="M200.769,15.644C200.123,21.273 200.076,26.902 200.675,32.54C204.734,34.724 209.093,33.23 213.283,33.352C216.556,33.445 217.426,34.425 217.445,37.627C217.538,50.014 217.65,50.219 205.305,49.883C200.703,49.762 199.468,51.218 199.637,55.633C199.955,63.829 199.73,72.052 199.656,80.267C199.627,83.375 200.516,85.008 204.051,84.178C208.485,83.142 213.245,85.307 217.566,82.88C219.175,81.713 218.399,80.014 218.417,78.568C218.492,70.792 218.576,63.016 218.371,55.241C218.286,51.918 219.474,50.816 222.692,51.068C225.638,51.302 228.621,51.302 231.568,51.096C234.542,50.891 235.215,52.151 235.187,54.914C235.056,67.824 235.047,80.724 235.187,93.633C235.225,96.779 234.448,97.993 231.034,97.974C211.403,97.825 191.771,97.843 172.139,97.965C168.969,97.983 167.575,97.171 167.828,93.82C168.071,90.572 167.903,87.295 167.874,84.028C167.856,82.264 167.921,80.351 165.162,81.013C161.243,83.431 157.156,82.367 153.078,81.62C152.246,81.153 151.638,80.491 151.264,79.604C150.057,74.741 150.656,69.793 150.6,64.874C150.506,55.633 150.553,46.382 150.59,37.141C150.6,34.845 150.413,32.474 152.134,30.561L152.031,30.598C155.912,30.551 159.794,30.365 163.656,30.495C166.182,30.579 167.538,29.889 167.182,27.154C167.145,26.846 167.164,26.537 167.164,26.229C167.229,15.327 167.229,15.299 177.994,15.364C185.598,15.411 193.183,15.551 200.769,15.644Z" fill="#FEFEFE"/>
<path d="M151.264,15.793C151.236,19.201 151.049,22.608 151.217,25.996C151.358,28.834 150.273,29.627 147.476,29.776C140.78,30.131 134.279,29.151 127.816,27.723C120.596,26.127 113.31,27.004 106.062,27.004C103.218,27.004 102.218,26.584 102.47,23.672C102.695,21.067 102.47,18.416 102.442,15.793C115.003,14.748 127.592,15.523 140.172,15.383C143.857,15.345 147.607,14.711 151.264,15.793Z" fill="#FCFBFA"/>
<path d="M250.171,165.014C250.142,165.892 250.114,166.779 250.096,167.656C225.965,167.703 201.835,167.852 177.705,167.693C173.253,167.665 170.924,168.393 171.653,173.453C172.083,176.44 170.746,179.007 168.137,180.752C168.052,176.72 168.062,172.678 167.847,168.645C167.697,165.789 168.819,164.912 171.663,164.921C197.832,165.033 224.001,165.005 250.171,165.014Z" fill="#52322D"/>
<path d="M34.287,98.712C30.191,92.336 24.186,94.072 18.378,94.969C18.369,85.317 18.35,75.665 18.341,66.022C38.281,66.022 58.231,66.125 78.171,65.957C82.268,65.92 83.933,66.835 83.755,71.334C83.362,81.06 83.596,81.06 93.388,81.107C95.876,81.116 98.373,81.21 100.861,81.266C101.217,81.686 101.469,82.152 101.619,82.684C101.853,83.431 101.89,84.206 101.918,84.981C102.236,94.306 101.89,94.661 92.612,95.305C90.302,95.463 87.992,95.473 85.756,96.359C81.707,97.974 79.939,100.616 80.276,104.947C80.762,111.211 79.013,113.46 72.868,113.124C62.374,112.545 51.852,114.282 41.377,112.331C37.093,111.537 35.251,109.941 35.326,105.47C35.372,103.118 35.503,100.821 34.287,98.712Z" fill="#FEFEFE"/>
<path d="M267.876,132.222C267.95,141.818 268.035,151.414 268.1,161.019C268.109,162.26 268.156,163.745 266.454,163.838C261.656,164.081 256.858,164.314 252.079,163.642C251.704,163.586 251.443,162.699 251.125,162.204C250.891,157.836 252.359,153.355 250.264,149.099C249.862,148.725 249.432,148.38 248.964,148.072C247.131,146.476 244.896,146.775 242.744,146.765C223.449,146.747 204.154,146.756 184.859,146.765C181.904,146.765 178.948,146.709 176.002,146.364C171.073,145.776 168.941,143.563 169.193,139.326C169.465,134.705 171.373,132.698 176.489,132.988C186.085,133.529 195.643,132.624 205.23,132.782C216.22,132.96 227.219,132.017 238.227,132.941C247.327,133.697 256.437,132.997 265.528,132.315C266.295,131.914 267.071,131.746 267.876,132.222Z" fill="#474145"/>
<path d="M250.273,162.149C249.927,162.728 249.572,163.307 249.226,163.885C223.412,163.932 197.607,163.951 171.793,164.063C169.081,164.072 167.996,163.353 167.903,160.422C167.547,150.014 167.435,150.014 178.022,150.024C200.413,150.033 222.804,150.145 245.195,149.949C249.338,149.912 250.863,151.06 250.32,155.176C250.021,157.463 250.273,159.825 250.273,162.149Z" fill="#D47266"/>
<path d="M150.076,163.913C150.123,160.804 150.301,157.696 150.17,154.597C150.029,151.265 151.208,149.622 154.753,149.93C156.913,150.116 159.139,150.228 161.281,149.948C165.695,149.388 167.257,150.891 167.061,155.512C166.715,163.997 166.986,163.997 158.297,164.034C155.65,164.043 153.013,164.118 150.366,164.165C150.375,164.183 150.076,163.913 150.076,163.913Z" fill="#573C29"/>
<path d="M155.837,132.288C156.436,132.288 157.035,132.279 157.624,132.279C158.419,131.719 159.289,131.476 160.243,131.793C163.338,132.829 165.237,137.319 164.414,141.641C163.731,145.216 161.028,147.466 157.642,147.261C153.537,147.008 150.908,144.245 150.684,140.148C150.478,136.209 151.657,133.306 155.837,132.288Z" fill="#F66755"/>
<path d="M155.837,132.288C155.922,134.958 152.573,133.735 151.806,136.115C150.394,140.493 151.675,144.348 156.015,145.898C159.513,147.148 161.917,145.589 163.105,142.518C164.919,137.814 162.347,133.305 157.633,132.279C157.689,131.999 157.727,131.709 157.745,131.429C158.821,130.262 160.177,130.346 161.571,130.542C163.591,131.336 166.154,130.617 167.706,132.736C168.454,137.926 169.446,143.125 167.089,148.194C162.618,148.091 158.166,148.698 153.667,148.324C151.021,148.1 150.067,147.232 150.216,144.684C150.347,142.36 150.459,139.998 150.207,137.702C149.683,133.249 151.619,131.653 155.837,132.288Z" fill="#D57366"/>
<path d="M150.029,117.502C154.659,115.439 159.513,117.119 164.246,116.625C164.9,116.877 165.555,117.119 166.2,117.371C166.743,118.669 166.864,119.882 165.499,120.778C163.273,121.563 160.935,121.161 158.662,121.292C155.66,121.45 154.107,122.561 154.275,125.744C154.36,127.397 154.397,129.142 153.219,130.561C152.227,130.981 151.264,131.158 150.366,130.356C150.244,126.071 150.142,121.787 150.029,117.502Z" fill="#493C15"/>
<path d="M143.651,146.28C144.567,146.887 145.905,147.792 143.679,148.063C140.938,148.39 138.114,148.156 135.336,148.11C133.091,148.063 132.521,146.579 132.549,144.665C132.605,140.511 132.119,136.33 133.344,132.26C138.329,132.316 143.305,132.381 148.29,132.437C148.355,133.763 148.337,135.032 146.513,135.107C144.231,135.742 141.892,135.415 139.582,135.433C136.561,135.461 135.523,137.011 135.551,139.83C135.579,142.313 135.579,144.553 139.058,144.451C140.77,144.395 142.444,144.861 143.651,146.28Z" fill="#412F09"/>
<path d="M250.255,148.185C250.274,148.484 250.274,148.792 250.264,149.09C224.132,149.09 198.001,149.1 171.878,149.09C170.522,149.09 169.044,149.482 167.94,148.241C168.165,148.026 168.389,147.811 168.604,147.597C170.166,146.729 171.869,146.729 173.59,146.738C197.065,146.841 220.532,146.775 244.007,146.775C246.205,146.775 248.347,146.906 250.255,148.185Z" fill="#814139"/>
<path d="M165.163,120.199C166.266,119.537 166.079,118.398 166.201,117.371C168.062,120.974 166.556,124.848 167.127,128.554C167.136,133.296 163.919,131.625 161.431,131.41C160.196,131.41 158.971,131.41 157.736,131.419C155.323,130.766 152.564,132.484 150.357,130.355C151.264,130.355 152.171,130.346 153.079,130.346C153.322,130.159 153.556,129.879 153.836,129.842C159.672,129.03 163.638,126.043 165.163,120.199Z" fill="#814139"/>
<path d="M167.07,148.184C167.052,142.901 167.024,137.608 167.005,132.325C167.276,132.26 167.547,132.185 167.819,132.11C168.296,132.428 168.642,132.866 168.866,133.399C168.763,138.318 170.428,143.34 168.043,148.128L167.931,148.24C167.641,148.194 167.36,148.175 167.07,148.184Z" fill="#814139"/>
<path d="M200.872,81.004C200.806,71.996 200.787,62.989 200.656,53.981C200.628,51.797 201.405,50.901 203.649,50.994C207.073,51.134 210.505,51.209 213.919,51.041C216.884,50.891 217.557,52.179 217.529,54.914C217.417,64.239 217.538,73.555 217.566,82.88C212.572,82.852 207.578,82.824 202.583,82.796C204.285,79.893 207.063,82.367 208.765,81.471C201.966,81.331 202.031,81.331 202.144,74.349C202.237,68.785 202.284,63.203 202.059,57.64C201.91,53.906 203.004,52.039 207.026,52.497C208.84,52.702 210.692,52.534 212.535,52.534C200.32,52.562 202.265,51.153 202.106,62.681C202.031,67.787 202.246,72.893 202.069,77.999C202.031,79.091 202.798,80.631 200.872,81.004Z" fill="#454346"/>
<path d="M235.309,33.398C235.29,37.898 235.159,42.397 235.281,46.896C235.346,49.295 234.533,50.406 232.073,50.107C231.764,50.07 231.455,50.098 231.137,50.098C217.632,50.312 217.688,50.312 218.259,36.918C218.371,34.379 219.119,33.249 221.785,33.324C226.293,33.464 230.801,33.389 235.309,33.398Z" fill="#424243"/>
<path d="M152.994,80.948C157.053,80.967 161.112,80.995 165.172,81.014C166.724,82.143 166.93,83.674 166.874,85.513C166.752,89.863 166.893,94.213 166.921,98.562C166.453,99.253 165.826,99.216 165.153,98.926C164.283,97.153 163.797,95.398 160.944,95.529C155.725,95.781 154.678,94.493 154.668,89.359C154.668,88.584 154.547,87.753 154.799,87.034C155.781,84.169 154.266,83.627 151.9,83.795C151.292,82.488 151.713,81.555 152.994,80.948Z" fill="#484546"/>
<path d="M200.872,81.005C202.555,74.62 201.405,68.123 201.555,61.692C201.779,52.077 201.62,52.077 211.422,52.115C212.479,52.115 213.536,52.115 214.611,52.983C211.946,52.983 209.271,53.067 206.605,52.964C203.902,52.861 202.574,53.897 202.602,56.726C202.668,63.671 202.64,70.615 202.611,77.56C202.602,80.165 203.921,81.145 206.399,81.033C208.223,80.958 210.056,81.014 212.9,81.014C208.915,82.816 205.427,80.622 202.583,82.806C201.106,83.068 200.647,82.358 200.872,81.005Z" fill="#212022"/>
<path d="M152.994,80.948C152.807,81.863 152.63,82.778 152.443,83.692C154.135,86.362 153.481,89.358 153.443,92.196C153.397,95.902 154.893,97.507 158.634,97.367C160.888,97.283 163.245,96.929 165.396,98.105C165.911,98.263 166.416,98.422 166.93,98.571C167.632,98.693 168.333,98.823 169.035,98.954C168.389,99.206 167.744,99.458 167.089,99.71C162.113,101.484 157.156,101.82 152.218,99.598C151.863,98.991 151.507,98.385 151.152,97.787C149.291,95.547 149.824,92.849 149.796,90.292C149.721,83.468 149.244,83.011 142.5,83.02C139.76,83.03 137.01,82.89 134.401,81.9L134.382,81.863C134.074,81.303 134.186,80.845 134.719,80.491C139.695,78.82 144.82,79.968 149.861,79.678C150.647,79.716 151.414,79.912 152.19,80.024C152.452,80.323 152.723,80.64 152.994,80.948Z" fill="#C5BA59"/>
<path d="M236.16,98.6C236.197,98.964 236.235,99.318 236.272,99.682C220.269,99.636 204.257,99.598 188.245,99.552C194.717,98.432 201.246,99.272 207.746,99.066C217.22,98.758 226.704,99.533 236.16,98.6Z" fill="#454346"/>
<path d="M187.628,117.39C211.001,117.39 234.374,117.399 257.746,117.399C258.56,118.034 259.523,117.782 260.44,117.884C264.116,118.276 266.183,120.461 266.155,123.886C266.127,127.191 264.406,128.712 260.29,129.011C247.542,129.926 234.785,129.599 222.028,129.459C208.055,129.31 194.091,129.552 180.127,129.524C177.938,129.524 175.759,129.534 173.636,128.955C170.017,127.975 168.586,125.697 168.969,122.02C169.343,118.454 171.906,118.062 174.674,117.875C178.986,117.586 183.344,118.444 187.628,117.39Z" fill="#F76954"/>
<path d="M187.628,117.39C183.662,119.435 179.416,117.82 175.329,118.324C172.794,118.641 170.241,118.93 169.895,122.207C169.605,124.998 170.503,126.874 173.552,127.714C178.93,129.189 184.448,129.012 189.732,128.368C194.437,127.789 198.936,128.844 203.509,128.545C216.959,127.658 230.389,128.872 243.839,128.676C249.273,128.601 254.641,127.957 260.038,127.668C262.283,127.546 264.873,128.293 264.948,124.559C265.014,121.348 263.854,119.192 260.683,118.38C259.664,118.118 258.476,118.473 257.728,117.4C258.195,117.39 258.663,117.372 259.121,117.372C268.493,117.334 269.475,118.622 268.025,128.032C267.576,130.935 265.659,130.421 263.91,130.421C250.245,130.449 236.581,130.431 222.916,130.431C204.903,130.44 186.889,130.459 168.875,130.477C167.351,130.487 167.342,129.693 167.893,128.61C168.09,117.381 168.09,117.381 179.257,117.362C182.063,117.372 184.85,117.381 187.628,117.39Z" fill="#DA7163"/>
<path d="M152.209,99.589C157.166,99.626 162.123,99.664 167.08,99.701C167.183,100.009 167.173,100.317 167.052,100.616C166.145,104.984 166.472,109.371 166.893,113.759C166.912,114.001 166.902,114.244 166.855,114.477C161.122,116.68 155.146,114.851 149.319,115.551C150.095,113.824 151.124,113.012 153.284,113.451C155.351,113.871 157.559,113.833 159.691,113.133C162.478,112.218 165.228,106.17 163.545,103.845C162.534,102.455 161.057,101.474 158.747,102.165C156.221,102.94 153.434,102.828 152.209,99.589Z" fill="#F5ED68"/>
<path d="M267.876,132.222C267.296,132.241 266.716,132.26 266.136,132.279C264.976,133.305 263.555,133.287 262.152,133.231C252.387,132.82 242.642,133.688 232.83,132.96C222.972,132.223 213.002,133.268 203.079,133.193C192.538,133.109 182.007,133.473 171.475,133.427C170.166,133.417 169.006,133.277 168.024,132.372L167.94,132.279C167.828,131.504 168.034,131.056 168.931,131.354C200.301,131.364 231.68,131.364 263.049,131.42C264.658,131.42 266.501,130.645 267.876,132.222Z" fill="#814139"/>
<path d="M166.902,113.759C165.761,109.363 165.48,104.975 167.061,100.616C167.155,104.331 167.239,108.037 167.332,111.752C167.192,112.424 167.042,113.087 166.902,113.759Z" fill="#C5BA59"/>
<path d="M168.941,131.355C168.614,131.663 168.286,131.971 167.95,132.279C167.632,132.298 167.323,132.316 167.005,132.335C165.153,132.008 163.086,132.96 161.431,131.43C163.675,131.168 166.35,131.747 167.127,128.573C167.398,128.592 167.66,128.611 167.931,128.629C168.258,129.255 168.586,129.871 168.913,130.496C168.913,130.776 168.922,131.066 168.941,131.355Z" fill="#A85C49"/>
<path d="M132.446,80.053C130.949,79.381 130.622,78.186 130.65,76.627C130.884,65.248 130.828,53.87 131.398,42.482C131.791,34.734 130.089,33.399 122.242,33.399C118.819,33.399 115.395,33.362 111.972,33.408C107.558,33.464 104.808,36.05 104.406,40.437C103.601,49.314 101.899,50.967 92.939,51.107C89.469,51.163 87.365,51.975 87.468,56.11C87.571,59.946 88.356,62.579 92.864,62.345C93.949,62.289 95.044,62.336 96.129,62.345C102.685,62.383 105.089,64.716 105.313,71.26C105.556,78.438 105.799,78.578 112.842,77.458C115.424,77.047 118.267,76.534 119.342,80.081C114.423,81.024 109.456,80.277 104.509,80.52C103.031,80.594 102.301,80.006 101.974,78.485C101.675,77.122 101.17,75.815 101.235,74.396C101.6,65.678 100.758,67.134 92.359,65.631C89.638,65.146 86.785,65.967 84.026,65.248C83.811,64.875 83.596,64.502 83.381,64.128C81.744,59.19 81.894,54.234 83.278,49.277C83.427,49.006 83.558,48.726 83.661,48.437C88.768,48.997 93.809,48.232 98.738,47.139C101.123,46.607 101.422,44.031 101.563,41.781C102.273,30.533 102.283,30.496 113.777,30.571C120.306,30.608 126.825,30.785 133.344,30.907C135.065,33.222 133.662,35.723 133.69,38.113C133.821,50.042 133.783,61.972 133.727,73.901C133.736,76.011 134.223,78.289 132.446,80.053Z" fill="#F1EC5A"/>
<path d="M101.245,78.204C99.646,80.37 97.784,79.11 95.484,78.886C96.915,77.868 99.337,78.251 98.476,76.281C97.579,74.2 99.038,71.26 96.568,69.981C93.622,68.459 90.377,68.366 87.15,69.383C86.552,69.57 86.972,71.297 85.831,70.354C85.336,69.943 85.205,68.935 85.167,68.188C85.121,67.162 86,67.087 86.785,66.994C89.226,66.723 91.742,67.507 94.118,66.424C100.534,64.352 102.152,65.323 101.993,71.558C101.937,73.761 103.003,76.169 101.245,78.204Z" fill="#46440E"/>
<path d="M83.297,49.276C83.97,54.224 83.68,59.171 83.399,64.127C80.556,64.426 78.517,64.417 79.845,60.338C80.612,57.976 80.416,55.129 80.004,52.609C79.509,49.575 80.603,48.819 83.297,49.276Z" fill="#4B4A0E"/>
<path d="M101.245,78.204C101.32,76.356 101.46,74.517 101.469,72.669C101.507,65.659 101.497,65.659 94.127,66.424C90.854,65.295 87.225,67.18 84.054,65.248C88.852,65.201 93.65,65.22 98.439,65.071C101.385,64.977 102.564,66.153 102.62,69.159C102.685,72.641 100.908,77.159 103.471,79.352C106.09,81.593 110.598,79.856 114.273,80.071C115.966,80.174 117.678,80.09 119.38,80.09L119.371,80.08C119.604,80.332 119.661,80.566 119.548,80.771C119.445,80.976 119.343,81.079 119.258,81.079C113.712,81.275 108.11,80.09 102.629,81.733C102.479,82.097 102.217,82.33 101.834,82.423C101.451,82.433 101.114,82.302 100.833,82.031C100.749,81.77 100.768,81.518 100.88,81.266C101.488,80.295 101.638,79.287 101.245,78.204Z" fill="#E9C142"/>
<path d="M152.181,80.015C151.835,80.155 151.489,80.295 151.143,80.444C148.739,78.652 145.914,78.726 143.118,78.614C137.01,78.39 135.823,77.214 135.785,71.025C135.72,59.852 135.785,48.679 135.748,37.496C135.738,35.713 136.337,33.716 134.597,32.269C134.223,31.839 134.102,31.345 134.223,30.785C140.2,30.71 146.167,30.635 152.143,30.561C152.153,47.055 152.171,63.53 152.181,80.015Z" fill="#424342"/>
<path d="M134.223,30.794C134.326,31.074 134.429,31.354 134.55,31.635C135.785,33.053 135.71,34.78 135.719,36.488C135.747,49.678 135.691,62.868 135.757,76.057C135.766,77.784 135.729,79.483 134.532,80.902C134.485,81.219 134.429,81.537 134.382,81.854C133.419,81.593 132.82,80.948 132.455,80.052C132.455,67.497 132.474,54.943 132.455,42.388C132.446,38.523 132.315,34.659 133.372,30.888C133.643,30.748 133.924,30.71 134.223,30.794Z" fill="#EDE657"/>
<path d="M84.971,29.665C80.931,29.665 76.9,29.6 72.859,29.684C70.708,29.73 69.642,28.899 69.819,26.697C69.829,26.547 69.81,26.389 69.819,26.23C69.941,14.319 68.51,16.849 78.779,16.634C84.831,16.503 90.891,16.634 96.943,16.597C99.187,16.587 100.59,17.082 99.851,19.826C99.543,20.984 99.739,22.291 99.748,23.532C99.777,29.665 99.777,29.665 93.36,29.665C90.555,29.665 87.768,29.665 84.971,29.665Z" fill="#424145"/>
<path d="M83.848,149.08C83.848,144.581 83.979,140.063 83.802,135.573C83.68,132.474 84.999,131.363 87.936,131.541C90.882,131.718 93.875,131.475 96.774,131.886C100.543,132.418 101.731,131.046 101.731,127.349C101.722,116.475 101.843,116.484 112.674,116.484C114.853,116.484 117.032,116.4 119.202,116.354C118.922,116.708 118.641,117.072 118.361,117.427C115.527,119.443 112.356,118.164 109.335,118.304C104.443,118.528 104.041,118.799 103.92,123.522C103.854,126.136 103.097,128.703 103.452,131.335C104.079,131.363 104.705,131.391 105.341,131.429C101.89,134.574 97.391,133.258 93.426,134.024C86.505,135.358 85.551,136.255 87.066,143.368C88.16,148.52 87.683,149.37 83.848,149.08Z" fill="#E9C142"/>
<path d="M134.392,81.892C138.713,81.91 143.024,81.994 147.345,81.91C150.104,81.854 151.264,83.03 151.189,85.775C151.086,89.77 151.152,93.774 151.143,97.779C147.149,97.312 147.935,93.784 147.925,91.665C147.897,84.879 147.972,84.907 141.659,84.328C139.19,84.095 136.412,83.88 134.392,81.892Z" fill="#EDE657"/>
<path d="M148.421,116.494C148.411,120.023 148.271,123.551 148.421,127.07C148.533,129.73 147.439,130.552 144.895,130.468C140.443,130.318 135.981,130.412 131.529,130.402C132.923,127.35 136.019,128.134 138.329,127.789C145.736,126.687 145.802,126.883 146.447,119.836C146.587,118.324 146.859,117.073 148.421,116.494Z" fill="#F3EB60"/>
<path d="M119.24,81.07C119.277,80.734 119.315,80.407 119.352,80.071C121.681,79.847 122.205,81.126 122.186,83.18C122.13,92.915 122.177,102.651 122.177,112.387C122.177,113.778 122.326,115.29 120.315,115.495C119.268,105.834 120.156,96.136 119.82,86.465C119.754,84.664 120.39,82.769 119.287,81.061L119.24,81.07Z" fill="#F1EC5A"/>
<path d="M103.452,131.336C101.535,127.378 102.798,123.196 102.685,119.126C102.629,117.166 104.509,117.399 105.856,117.39C110.027,117.371 114.189,117.409 118.361,117.418C117.173,120.433 114.751,120.078 112.244,119.724C106.398,118.883 106.071,119.229 105.257,124.764C104.93,127.004 104.07,129.151 103.452,131.336Z" fill="#FAF456"/>
<path d="M119.296,81.061C120.998,82.358 120.25,84.206 120.259,85.802C120.334,95.697 120.306,105.601 120.315,115.495C119.96,115.766 119.614,116.027 119.258,116.289C119.268,104.546 119.277,92.803 119.296,81.061Z" fill="#E9C142"/>
<path d="M101.647,81.779C101.965,81.76 102.283,81.741 102.611,81.723C102.919,81.797 103.218,81.881 103.518,81.965C105.744,83.702 108.297,82.703 110.701,82.74C115.246,82.815 116.724,83.907 116.892,88.35C117.154,95.164 117.136,101.988 116.902,108.802C116.743,113.292 114.928,114.608 109.765,114.58C105.248,114.552 103.808,113.068 103.471,108.438C103.237,105.245 104.303,101.913 102.554,98.87C102.274,97.591 103.069,95.967 101.367,95.136C101.058,90.674 100.777,86.213 101.647,81.779Z" fill="#464442"/>
<path d="M102.545,98.862C106.033,101.065 104.107,104.509 104.331,107.365C104.761,112.761 106.576,114.45 111.673,113.526C114.516,113.013 115.845,111.715 115.714,108.532C115.452,102.334 115.657,96.108 115.648,89.901C115.639,83.768 115.068,83.245 108.989,83.786C107.764,83.898 106.529,84.029 105.323,84.263C103.143,84.683 103.62,83.124 103.527,81.966C107.249,81.938 110.972,82.032 114.675,81.854C117.416,81.724 118.548,82.601 118.491,85.523C118.342,94.176 118.342,102.838 118.491,111.5C118.538,114.441 117.706,115.533 114.582,115.598C102.498,115.832 102.498,115.944 102.507,103.968C102.507,102.269 102.526,100.56 102.545,98.862Z" fill="#544F0F"/>
<path d="M101.647,81.779C101.553,86.232 101.46,90.675 101.357,95.128C101.076,95.716 100.805,96.294 100.534,96.873C96.727,96.509 92.939,96.369 89.105,96.817C83.334,97.499 81.127,99.711 81.033,105.451C80.912,112.872 80.014,113.61 72.382,113.684C63.693,113.768 55.014,113.535 46.315,113.946C36.196,114.422 34.465,111.92 34.288,98.703C37.206,100.28 36.074,103.071 36.111,105.377C36.186,109.587 37.608,111.285 42.312,112.004C52.339,113.544 62.29,111.752 72.26,112.583C78.461,113.096 80.304,110.576 79.368,104.583C78.527,99.216 83.082,94.745 89.844,94.026C93.239,93.662 97.41,96.388 99.879,92.906C101.956,89.984 100.197,85.961 100.74,82.461C100.768,82.311 100.787,82.153 100.815,82.003C101.086,81.938 101.366,81.854 101.647,81.779Z" fill="#FDFDD0"/>
<path d="M100.665,115.485C99.15,109.931 99.702,104.368 100.656,98.814C100.871,98.721 101.086,98.711 101.301,98.805C101.077,104.368 102.293,109.978 100.665,115.485Z" fill="#EBE66F"/>
<path d="M143.651,146.28C141.369,146.523 139.227,144.6 136.851,145.888C136.524,146.065 135.813,146.009 135.57,145.767C133.241,143.442 134.747,140.493 134.41,137.842C134.204,136.227 134.588,134.397 136.561,134.369C139.882,134.323 143.323,133.221 146.503,135.097C146.157,138.981 147.804,143.368 143.651,146.28Z" fill="#4B433A"/>
<path d="M93.257,113.666C86.065,113.656 84.793,112.723 84.802,107.99C84.812,103.846 88.665,99.767 92.528,99.804C95.895,99.841 98.523,103.65 98.869,107.962C99.262,112.9 97.092,114.422 93.257,113.666Z" fill="#F7ED3A"/>
<path d="M91.265,128.237C88.188,129.254 86.785,128.48 86.486,124.419C86.056,118.623 89.975,119.099 93.304,118.968C95.979,118.865 98.944,118.959 98.851,123.243C98.738,128.582 95.493,128.657 91.265,128.237Z" fill="#464532"/>
<path d="M20.857,105.862C19.753,102.296 21.409,100.849 24.664,100.606C29.275,100.27 29.864,103.789 30.444,106.963C30.977,109.903 27.881,113.32 24.841,113.03C20.221,112.601 20.595,109.063 20.857,105.862Z" fill="#F9EE36"/>
<path d="M168.034,132.372C200.741,132.344 233.438,132.316 266.145,132.288C265.874,134.631 264.05,134.276 262.582,134.164C252.443,133.39 242.361,135.032 232.063,133.688C224.076,132.652 215.546,133.483 207.25,134.015C196.71,134.696 186.085,134.314 175.497,134.127C171.111,134.052 170.363,136.666 170.297,139.98C170.232,143.34 172.018,144.834 175.432,144.974C198.271,145.907 221.111,145.123 243.96,145.366C246.542,145.394 249.011,145.347 250.255,148.185C222.851,148.166 195.447,148.147 168.043,148.129C168.034,142.883 168.034,137.627 168.034,132.372Z" fill="#5F322D"/>
<path d="M208.672,150.985C219.409,150.985 230.146,151.041 240.883,150.947C243.259,150.929 245.167,151.479 246.561,153.43C248.506,156.156 247.608,159.246 244.55,160.469C240.734,161.999 236.974,162.522 232.756,161.635C229.052,160.861 225.03,160.973 221.224,161.374C212.432,162.289 203.678,161.654 194.923,161.747C188.451,161.822 182.016,161.122 175.563,161.374C172.439,161.495 168.913,158.91 169.287,156.231C169.727,153.122 171.139,150.854 175.058,150.919C186.263,151.097 197.467,150.985 208.672,150.985Z" fill="#F56A54"/>
<path d="M165.163,120.2C164.648,128.227 162.132,130.346 153.088,130.346C152.929,118.949 153.434,118.52 165.163,120.2Z" fill="#4D403E"/>
<path d="M165.396,98.096C152.237,100.074 152.209,100.056 152.255,87.408C152.265,86.166 152.377,84.925 152.442,83.692C153.63,82.404 155.033,82.031 156.52,83.02C158.428,84.299 155.968,84.897 155.968,85.905C155.968,88.042 155.557,90.264 155.987,92.308C156.558,95.043 158.634,95.006 161.047,94.39C163.89,93.68 166.528,93.839 165.396,98.096Z" fill="#484413"/>
<path d="M134.522,80.902C134.064,64.483 133.98,48.054 134.551,31.635C136.58,31.476 137.422,31.831 137.366,34.426C137.094,47.27 137.244,60.123 137.113,72.968C137.076,76.197 138.338,77.514 141.528,77.289C143.539,77.149 145.559,77.299 147.579,77.252C149.786,77.205 151.199,77.99 151.152,80.435C145.624,81.453 140.059,80.669 134.522,80.902Z" fill="#4E4914"/>
</svg>
