<svg width="64" height="62" viewBox="0 0 64 62" fill="none" xmlns="http://www.w3.org/2000/svg" xmlns:xlink="http://www.w3.org/1999/xlink">
<path d="M44.978,29.489C40.007,29.489 35.042,29.453 30.077,29.513C28.685,29.531 27.926,29.387 27.95,27.63C28.051,20.649 28.01,13.662 27.974,6.681C27.968,5.434 28.129,4.72 29.647,4.51C39.66,3.119 49.668,1.667 59.664,0.096C61.522,-0.198 62.03,0.09 62,2.057C61.874,10.435 61.856,18.82 61.94,27.198C61.958,29.075 61.396,29.573 59.58,29.531C54.717,29.411 49.841,29.489 44.978,29.489Z" fill="#FEFEFE"/>
<path d="M45.271,32.578C50.14,32.578 55.01,32.632 59.879,32.548C61.403,32.524 61.94,32.926 61.928,34.539C61.857,43.121 61.857,51.703 61.928,60.285C61.94,61.845 61.367,62.144 60.011,61.947C49.895,60.495 39.78,59.056 29.659,57.652C28.279,57.461 27.944,56.801 27.956,55.469C28.022,48.585 28.076,41.7 27.932,34.815C27.89,32.782 28.709,32.59 30.364,32.62C35.329,32.71 40.3,32.65 45.271,32.65C45.271,32.626 45.271,32.602 45.271,32.578Z" fill="#FEFEFE"/>
<path d="M12.595,29.554C9.016,29.554 5.437,29.5 1.858,29.584C0.418,29.62 -0.012,29.128 0.006,27.701C0.072,22.016 0.054,16.324 0.018,10.633C0.012,9.463 0.269,8.846 1.601,8.666C8.783,7.706 15.958,6.681 23.116,5.595C24.634,5.361 25.166,5.631 25.142,7.304C25.052,13.991 25.022,20.678 25.154,27.365C25.195,29.374 24.413,29.644 22.722,29.584C19.358,29.47 15.97,29.554 12.595,29.554Z" fill="#FEFEFE"/>
<path d="M12.714,32.648C16.192,32.648 19.669,32.72 23.146,32.618C24.712,32.57 25.16,33.05 25.13,34.634C25.016,41.315 24.987,48.002 25.052,54.682C25.07,56.362 24.76,56.907 22.937,56.62C15.881,55.504 8.807,54.527 1.727,53.567C0.508,53.399 0,53.015 0.012,51.726C0.066,45.938 0.09,40.151 0,34.37C-0.024,32.762 0.711,32.612 1.984,32.63C5.557,32.684 9.135,32.648 12.714,32.648Z" fill="#FEFEFE"/>
</svg>
