<svg width="106" height="88" viewBox="0 0 106 88" fill="none" xmlns="http://www.w3.org/2000/svg" xmlns:xlink="http://www.w3.org/1999/xlink">
<path d="M53.103,0.084C69.412,0.084 85.721,0.185 102.03,-0.001C105.356,-0.035 106.017,0.949 106,4.036C105.871,29.31 105.931,54.575 105.923,79.848C105.923,85.794 103.714,87.982 97.648,87.982C67.891,87.999 38.135,87.999 8.378,87.982C2.475,87.982 -0.009,85.607 0,79.806C0.043,54.405 0.215,29.004 0.155,3.595C0.146,0.355 1.426,0.016 4.176,0.033C20.485,0.135 36.794,0.084 53.103,0.084Z" fill="#FEFEFE"/>
<path d="M99.255,54.084C93.429,49.784 88.359,46.205 83.487,42.38C81.605,40.896 80.368,40.777 78.34,42.236C72.342,46.561 66.087,50.53 60.046,54.796C58.241,56.069 57.331,55.89 55.853,54.279C48.085,45.806 40.102,37.529 32.343,29.039C30.478,27.004 29.43,26.91 27.351,28.836C20.915,34.806 14.229,40.523 6.96,46.943C6.96,42.558 6.96,38.86 6.96,35.154C6.969,25.978 7.063,16.801 6.9,7.633C6.857,5.029 7.544,4.317 10.217,4.325C38.83,4.419 67.444,4.393 96.058,4.368C97.94,4.368 99.315,4.342 99.306,6.929C99.203,22.305 99.255,37.681 99.255,54.084Z" fill="#008900"/>
<path d="M53.146,22.865C53.086,17.582 57.159,13.29 62.375,13.146C67.616,13.002 72.213,17.539 72.162,22.806C72.119,27.945 67.754,32.296 62.65,32.296C57.417,32.305 53.206,28.124 53.146,22.865Z" fill="#FDFDFD"/>
</svg>
