<svg width="112" height="110" viewBox="0 0 112 110" fill="none" xmlns="http://www.w3.org/2000/svg" xmlns:xlink="http://www.w3.org/1999/xlink">
<path d="M54.946,0C67.756,0.235 79.496,3.547 89.788,11.155C99.668,18.457 106.21,28.144 109.858,39.819C110.136,40.704 110.027,41.435 109.415,42.01C106.512,44.729 103.009,45.918 99.062,45.872C97.844,45.857 97.271,45.084 96.798,44.04C92.022,33.499 84.368,25.743 73.632,21.363C59.622,15.647 45.699,16.279 32.283,23.309C23.546,27.888 17.242,34.937 13.196,43.911C12.49,45.472 11.462,46.044 9.97,45.945C7.034,45.752 4.302,44.819 1.842,43.222C-0.13,41.94 -0.347,41.089 0.401,38.839C4.778,25.65 12.771,15.271 24.767,8.129C32.187,3.709 40.279,1.2 48.901,0.376C50.948,0.181 52.998,0.126 54.946,0Z" fill="#FEFEFE"/>
<path d="M19.859,60.421C23.811,60.433 26.697,62.755 27.571,66.02C29.38,72.776 31.177,79.536 32.964,86.299C34.017,90.276 35.081,94.251 36.079,98.243C37.007,101.946 34.879,105.553 31.18,106.609C29.268,107.154 27.303,107.536 25.418,108.164C24.378,108.51 24.173,108.116 23.953,107.277C21.668,98.646 19.364,90.021 17.046,81.402C15.436,75.415 13.796,69.437 12.165,63.456C12.056,63.056 11.646,62.605 12.415,62.431C15.18,61.811 17.815,60.695 19.859,60.421Z" fill="#FEFEFE"/>
<path d="M89.249,60.427C91.422,60.704 94.015,61.799 96.717,62.449C97.588,62.659 97.039,63.348 96.916,63.805C95.381,69.458 93.81,75.102 92.282,80.755C89.885,89.618 87.494,98.48 85.167,107.361C84.922,108.294 84.663,108.414 83.801,108.159C81.796,107.566 79.74,107.154 77.744,106.54C74.15,105.433 72.103,101.754 73.092,97.978C75.932,87.133 78.832,76.299 81.766,65.478C82.583,62.473 85.516,60.409 89.249,60.427Z" fill="#FEFEFE"/>
<path d="M109.677,69.952C109.361,75.021 108.366,80.1 107.048,85.112C105.348,91.589 103.639,98.066 101.07,104.272C98.525,110.419 98.504,110.382 91.986,109.459C90.654,109.269 90.696,108.92 90.991,107.831C94.835,93.71 98.646,79.579 102.393,65.431C102.707,64.251 103.075,64.266 103.973,64.718C105.037,65.253 106.153,65.695 107.256,66.156C109.484,67.094 109.698,67.41 109.677,69.952Z" fill="#FEFEFE"/>
<path d="M0.247,69.985C0.256,67.398 0.467,67.067 2.517,66.215C2.885,66.062 3.271,65.951 3.636,65.797C6.584,64.543 6.575,64.543 7.383,67.551C10.98,80.921 14.58,94.29 18.179,107.656C18.662,109.446 18.611,109.513 16.747,109.624C16.147,109.66 15.544,109.678 14.954,109.768C11.975,110.223 11.67,110.123 10.284,107.389C7.437,101.775 5.819,95.725 4.097,89.714C2.605,84.504 1.372,79.233 0.603,73.866C0.407,72.485 0.347,71.086 0.247,69.985Z" fill="#FEFEFE"/>
<path d="M23.438,108.484C23.531,109.061 23.085,109.143 22.717,109.275C19.741,110.364 19.699,110.337 18.888,107.322C15.08,93.192 11.294,79.058 7.429,64.946C7.04,63.526 7.486,63.168 8.74,62.924C11.348,62.416 10.835,61.82 11.571,64.525C15.484,78.881 19.331,93.258 23.199,107.626C23.278,107.912 23.359,108.198 23.438,108.484Z" fill="#FEFEFE"/>
<path d="M89.149,110C88.031,109.684 87.066,109.437 86.119,109.136C85.323,108.887 85.788,108.366 85.905,107.924C88.549,98.005 91.178,88.08 93.84,78.165C95.14,73.327 96.542,68.517 97.808,63.67C98.097,62.557 98.486,62.385 99.541,62.704C102.041,63.462 102.05,63.408 101.359,65.989C97.527,80.261 93.698,94.533 89.858,108.805C89.728,109.284 89.734,109.913 89.149,110Z" fill="#FEFEFE"/>
<path d="M2.062,44.443C3.877,45.241 5.511,46.083 7.338,46.411C7.769,46.489 7.989,46.7 7.911,47.247C7.184,52.292 7.052,57.377 6.964,62.461C6.952,63.162 6.735,63.532 6.072,63.791C4.64,64.35 3.208,64.934 1.839,65.632C0.841,66.14 0.814,65.698 0.802,64.898C0.709,58.108 1.046,51.345 2.062,44.443Z" fill="#FEFEFE"/>
<path d="M107.82,44.462C109.053,51.61 109.379,62.837 108.972,65.987C107.124,65.187 105.312,64.399 103.497,63.623C102.897,63.364 102.987,62.846 102.975,62.356C102.849,57.326 102.767,52.29 102.047,47.299C101.953,46.658 102.213,46.466 102.689,46.384C104.468,46.068 106.056,45.247 107.82,44.462Z" fill="#FEFEFE"/>
</svg>
