<svg width="100" height="100" viewBox="0 0 100 100" fill="none" xmlns="http://www.w3.org/2000/svg" xmlns:xlink="http://www.w3.org/1999/xlink">
<path d="M16.582,1.116C20.02,-0.126 21.966,-1.045 24.89,-0.58C27.814,-0.114 30.555,1.387 32.655,3.675L40.174,13.197C42.234,15.824 43.549,18.991 43.956,22.304C44.363,25.616 43.844,28.928 42.462,31.827L35.965,41.678C35.965,41.678 37.597,47.465 43.956,54.161C49.679,60.185 59.565,65.817 59.565,65.817C59.565,65.817 71.937,55.24 75.087,55.24C79.807,55.24 82.954,57.135 84.527,58.258L90.82,63.304C93.137,65.315 97.99,69.326 98.687,72.356C99.383,75.387 99.916,78.688 98.687,81.408L93.967,90.46C91.819,94.271 89.925,96.07 86.1,97.936C82.275,99.803 72.181,96.617 68.793,94.919C56.753,88.884 46.767,82.917 31.088,67.831C16.928,51.235 4.875,34.858 1.14,21.062C-0.222,16.031 0.375,13.95 1.352,11.505C2.898,7.636 8.595,5.125 12.154,2.891L16.582,1.116Z" transform="rotate(50.266 49.883 48.901)" fill="#FFFFFF"/>
<path d="M12.154,2.891C12.154,2.891 21.805,25.083 46.978,53.748C70.281,80.281 92.408,90.67 93.967,90.46C93.967,90.46 99.916,78.688 98.687,81.408L93.967,90.46C91.819,94.271 89.925,96.07 86.1,97.936C82.275,99.803 72.181,96.617 68.793,94.919C56.753,88.884 46.767,82.917 31.088,67.831C16.928,51.235 4.875,34.858 1.14,21.062C-0.222,16.031 0.375,13.95 1.352,11.505C2.898,7.636 8.595,5.125 12.154,2.891Z" transform="rotate(50.266 49.883 48.901)" fill="#FFFFFF"/>
</svg>
